<?xml version="1.0" encoding="UTF-8"?>
<svg xmlns="http://www.w3.org/2000/svg" xmlns:xlink="http://www.w3.org/1999/xlink" width="1000px" height="978px" viewBox="880 605 80 278" version="1.1">
<g id="surface1">
<path style=" stroke:none;fill-rule:nonzero;fill:rgb(21.568628%,70.980394%,99.607843%);fill-opacity:1;" d="M 869.003906 669.226562 C 856.742188 669.503906 846.257812 677.539062 837.558594 693.289062 C 828.421875 711.015625 823.910156 730.722656 823.992188 752.40625 C 824.148438 755.019531 824.425781 755.253906 824.859375 753.15625 C 828.539062 737.210938 832.375 724.746094 836.371094 715.722656 C 840.285156 706.664062 844.636719 699.222656 849.382812 693.484375 C 860.300781 680.78125 869.753906 678.726562 877.78125 687.3125 C 886.5625 697.441406 891.230469 714.535156 891.785156 738.515625 C 891.308594 770.765625 887.078125 795.144531 879.089844 811.722656 C 869.082031 831.902344 858.796875 838.632812 848.355469 831.824219 C 834.117188 820.46875 826.207031 795.300781 824.625 756.402344 C 824.070312 755.058594 823.554688 756.046875 823.160156 759.371094 C 822.410156 763.40625 821.894531 767.839844 821.578125 772.546875 C 820.390625 793.679688 823.199219 811.605469 829.964844 826.324219 C 836.886719 840.292969 846.101562 847.375 857.609375 847.613281 C 870.03125 847.414062 881.34375 839.304688 891.585938 823.199219 C 901.792969 806.382812 908.359375 785.882812 911.246094 761.625 C 912.3125 735.824219 908.832031 713.863281 900.84375 695.742188 C 892.773438 678.488281 882.210938 669.625 869.199219 669.148438 "/>
<path style=" stroke:none;fill-rule:nonzero;fill:rgb(21.568628%,70.980394%,99.607843%);fill-opacity:1;" d="M 959.972656 659.652344 C 953.605469 649.207031 941.425781 644.101562 923.425781 644.417969 C 903.53125 645.367188 884.191406 651.304688 865.441406 662.222656 C 863.265625 663.648438 863.1875 664.042969 865.203125 663.371094 C 880.867188 658.582031 893.566406 655.65625 903.335938 654.625 C 913.144531 653.480469 921.726562 653.519531 929.082031 654.785156 C 945.539062 657.910156 952.0625 665.074219 948.621094 676.3125 C 944.230469 688.972656 931.773438 701.558594 911.285156 714.0625 C 883.121094 729.773438 859.90625 738.320312 841.589844 739.664062 C 819.085938 741.089844 808.167969 735.550781 808.839844 723.085938 C 811.648438 705.039062 829.449219 685.609375 862.316406 664.757812 C 863.1875 663.609375 862.082031 663.6875 859.035156 664.996094 C 855.160156 666.378906 851.085938 668.121094 846.8125 670.21875 C 827.945312 679.753906 813.785156 691.152344 804.453125 704.367188 C 795.828125 717.347656 794.285156 728.902344 799.824219 738.953125 C 806.191406 749.597656 818.886719 755.335938 837.953125 756.164062 C 857.609375 756.601562 878.652344 752.050781 901.078125 742.394531 C 923.941406 730.40625 941.226562 716.4375 952.894531 700.449219 C 963.8125 684.820312 966.183594 671.246094 960.09375 659.730469 "/>
<path style=" stroke:none;fill-rule:nonzero;fill:rgb(21.568628%,70.980394%,99.607843%);fill-opacity:1;" d="M 1013.765625 733.6875 C 1019.621094 722.925781 1017.960938 709.828125 1008.664062 694.394531 C 997.867188 677.617188 983.074219 663.847656 964.246094 653.082031 C 961.914062 651.898438 961.554688 652.015625 963.136719 653.441406 C 975.125 664.597656 983.984375 674.175781 989.796875 682.089844 C 995.691406 690.042969 999.960938 697.480469 1002.535156 704.484375 C 1008.070312 720.3125 1005.105469 729.535156 993.671875 732.144531 C 980.503906 734.679688 963.414062 730.167969 942.332031 718.691406 C 914.6875 702.152344 895.660156 686.285156 885.296875 671.128906 C 872.839844 652.332031 872.167969 640.105469 883.28125 634.445312 C 900.25 627.796875 925.957031 633.535156 960.449219 651.621094 C 961.871094 651.777344 961.28125 650.867188 958.589844 648.890625 C 955.464844 646.199219 951.90625 643.546875 947.949219 640.894531 C 930.269531 629.300781 913.339844 622.773438 897.203125 621.269531 C 881.660156 620.28125 870.902344 624.710938 864.929688 634.566406 C 858.875 645.40625 860.261719 659.296875 869.082031 676.191406 C 878.535156 693.445312 893.011719 709.394531 912.550781 723.996094 C 934.34375 737.804688 955.109375 745.796875 974.765625 747.894531 C 993.753906 749.519531 1006.726562 744.808594 1013.609375 733.769531 "/>
<path style=" stroke:none;fill-rule:nonzero;fill:rgb(21.568628%,70.980394%,99.607843%);fill-opacity:1;" d="M 976.585938 817.300781 C 988.847656 817.027344 999.328125 808.992188 1008.03125 793.242188 C 1017.167969 775.515625 1021.675781 755.808594 1021.597656 734.125 C 1021.441406 731.511719 1021.164062 731.277344 1020.726562 733.371094 C 1017.050781 749.320312 1013.210938 761.785156 1009.21875 770.808594 C 1005.300781 779.867188 1000.953125 787.308594 996.203125 793.046875 C 985.289062 805.746094 975.835938 807.804688 967.804688 799.21875 C 959.023438 789.089844 954.359375 771.992188 953.804688 748.015625 C 954.277344 715.765625 958.511719 691.386719 966.5 674.808594 C 976.507812 654.625 986.792969 647.898438 997.234375 654.707031 C 1011.472656 666.0625 1019.382812 691.230469 1020.964844 730.128906 C 1021.519531 731.472656 1022.035156 730.484375 1022.429688 727.160156 C 1023.179688 723.125 1023.695312 718.691406 1024.011719 713.984375 C 1025.199219 692.851562 1022.390625 674.925781 1015.625 660.207031 C 1008.703125 646.238281 999.488281 639.15625 987.976562 638.917969 C 975.558594 639.113281 964.246094 647.226562 954 663.332031 C 943.796875 680.148438 937.230469 700.648438 934.34375 724.90625 C 933.277344 750.703125 936.757812 772.667969 944.746094 790.789062 C 952.816406 808.042969 963.375 816.90625 976.390625 817.382812 "/>
<path style=" stroke:none;fill-rule:nonzero;fill:rgb(21.568628%,70.980394%,99.607843%);fill-opacity:1;" d="M 831.820312 752.839844 C 825.96875 763.605469 827.628906 776.703125 836.925781 792.136719 C 847.722656 808.914062 862.515625 822.683594 881.34375 833.449219 C 883.675781 834.632812 884.03125 834.515625 882.449219 833.089844 C 870.464844 821.933594 861.605469 812.355469 855.792969 804.441406 C 849.898438 796.488281 845.625 789.050781 843.054688 782.042969 C 837.519531 766.214844 840.484375 756.996094 851.914062 754.386719 C 865.085938 751.851562 882.171875 756.363281 903.253906 767.839844 C 930.902344 784.378906 949.929688 800.246094 960.289062 815.402344 C 972.75 834.199219 973.421875 846.425781 962.308594 852.085938 C 945.339844 858.734375 919.628906 852.996094 885.140625 834.910156 C 883.714844 834.753906 884.308594 835.664062 887 837.640625 C 890.125 840.332031 893.683594 842.984375 897.636719 845.636719 C 915.320312 857.230469 932.246094 863.757812 948.386719 865.261719 C 963.929688 866.25 974.6875 861.820312 980.660156 851.964844 C 986.710938 841.125 985.328125 827.234375 976.507812 810.339844 C 967.054688 793.085938 952.578125 777.136719 933.039062 762.535156 C 911.246094 748.726562 890.480469 740.734375 870.820312 738.636719 C 851.835938 737.011719 838.863281 741.722656 831.980469 752.761719 "/>
<path style=" stroke:none;fill-rule:nonzero;fill:rgb(21.568628%,70.980394%,99.607843%);fill-opacity:1;" d="M 885.613281 826.878906 C 891.984375 837.324219 904.164062 842.429688 922.160156 842.113281 C 942.058594 841.164062 961.398438 835.226562 980.144531 824.304688 C 982.320312 822.882812 982.402344 822.484375 980.382812 823.160156 C 964.71875 827.945312 952.023438 830.875 942.253906 831.902344 C 932.445312 833.050781 923.863281 833.011719 916.503906 831.746094 C 900.050781 828.621094 893.523438 821.457031 896.964844 810.21875 C 901.355469 797.554688 913.816406 784.972656 934.304688 772.46875 C 962.464844 756.757812 985.683594 748.210938 1003.996094 746.867188 C 1026.503906 745.441406 1037.417969 750.980469 1036.746094 763.445312 C 1034.019531 781.453125 1016.21875 800.878906 983.3125 821.734375 C 982.441406 822.882812 983.546875 822.804688 986.59375 821.496094 C 990.46875 820.113281 994.542969 818.371094 998.816406 816.273438 C 1017.683594 806.738281 1031.84375 795.339844 1041.175781 782.125 C 1049.800781 769.144531 1051.34375 757.589844 1045.804688 747.539062 C 1039.4375 736.894531 1026.738281 731.15625 1007.714844 730.324219 C 988.058594 729.890625 967.015625 734.441406 944.589844 744.097656 C 921.726562 756.085938 904.441406 770.054688 892.773438 786.042969 C 881.855469 801.671875 879.484375 815.246094 885.574219 826.761719 "/>
</g>
</svg>
