<svg id="svg-comp" width="100%" height="100%" viewBox="0 0 500 500" fill="none" preserveAspectRatio="none" xmlns="http://www.w3.org/2000/svg" class="transition" style="border-radius: 0%; transform: scale(1) rotate(0deg);"><defs><mask id="globeOuterOnly"><path fill-rule="evenodd" clip-rule="evenodd" d="M254.122 121.195L314.955 164.814C320.396 168.716 323.623 175.001 323.623 181.696V215.713L384.776 249.731V181.696C384.776 155.29 372.049 130.503 350.589 115.116L284.91 68.0222L282.532 66.8742C255.838 53.9874 230.827 60.0888 217.622 69.2021L150.595 114.759C128.156 130.011 114.723 155.383 114.723 182.516V249.731L175.876 216.123V182.516C175.876 175.636 179.282 169.203 184.972 165.335L250.672 120.679C251.071 120.642 251.679 120.635 252.486 120.774C252.925 120.849 253.471 120.976 254.122 121.195Z" fill="#fff" stroke="#fff" stroke-width="20"></path><path fill-rule="evenodd" clip-rule="evenodd" d="M254.122 377.801L314.955 334.182C320.396 330.281 323.623 323.996 323.623 317.3V283.283L384.776 249.265V317.3C384.776 343.706 372.049 368.493 350.589 383.88L284.91 430.974L282.532 432.122C255.838 445.009 230.827 438.907 217.622 429.794L150.595 384.237C128.156 368.985 114.723 343.613 114.723 316.48V249.265L175.876 282.873V316.48C175.876 323.36 179.282 329.793 184.972 333.661L250.672 378.317C251.071 378.354 251.679 378.361 252.486 378.222C252.925 378.147 253.471 378.02 254.122 377.801Z" fill="#fff" stroke="#fff" stroke-width="20"></path></mask></defs><path fill-rule="evenodd" clip-rule="evenodd" d="M254.122 121.195L314.955 164.814C320.396 168.716 323.623 175.001 323.623 181.696V215.713L384.776 249.731V181.696C384.776 155.29 372.049 130.503 350.589 115.116L284.91 68.0222L282.532 66.8742C255.838 53.9874 230.827 60.0888 217.622 69.2021L150.595 114.759C128.156 130.011 114.723 155.383 114.723 182.516V249.731L175.876 216.123V182.516C175.876 175.636 179.282 169.203 184.972 165.335L250.672 120.679C251.071 120.642 251.679 120.635 252.486 120.774C252.925 120.849 253.471 120.976 254.122 121.195Z" fill="#fff" stroke="#fff" stroke-width="20"></path><path fill-rule="evenodd" clip-rule="evenodd" d="M254.122 377.801L314.955 334.182C320.396 330.281 323.623 323.996 323.623 317.3V283.283L384.776 249.265V317.3C384.776 343.706 372.049 368.493 350.589 383.88L284.91 430.974L282.532 432.122C255.838 445.009 230.827 438.907 217.622 429.794L150.595 384.237C128.156 368.985 114.723 343.613 114.723 316.48V249.265L175.876 282.873V316.48C175.876 323.36 179.282 329.793 184.972 333.661L250.672 378.317C251.071 378.354 251.679 378.361 252.486 378.222C252.925 378.147 253.471 378.02 254.122 377.801Z" fill="#fff" stroke="#fff" stroke-width="20"></path></svg>